<svg width="1120" height="136" viewBox="0 0 1120 136" fill="none" xmlns="http://www.w3.org/2000/svg">
<g clip-path="url(#clip0_8_31)">
<path opacity="0.25416" d="M-142.046 61.17C-142.046 61.17 51.1742 211.071 264.652 84.4556C478.129 -42.1599 694.723 -7.23147 848.987 71.3575C1003.25 149.946 1159.08 91.7324 1159.08 91.7324" stroke="#5AEEFF"/>
<path opacity="0.25416" d="M-96.1331 61.17C-96.1331 61.17 97.0873 211.071 310.565 84.4556C524.042 -42.1599 740.636 -7.23147 894.9 71.3575C1049.17 149.946 1204.99 91.7324 1204.99 91.7324" stroke="#5AEEFF"/>
<path opacity="0.25416" d="M-50.2199 61.17C-50.2199 61.17 143.001 211.071 356.478 84.4556C569.955 -42.1599 786.549 -7.23147 940.814 71.3575C1095.08 149.946 1250.9 91.7324 1250.9 91.7324" stroke="#5AEEFF"/>
<path opacity="0.25416" d="M-4.30676 61.17C-4.30676 61.17 188.914 211.071 402.391 84.4556C615.869 -42.1599 832.462 -7.23147 986.727 71.3575C1140.99 149.946 1296.82 91.7324 1296.82 91.7324" stroke="#5AEEFF"/>
</g>
<defs>
<clipPath id="clip0_8_31">
<rect width="1120" height="136" fill="white"/>
</clipPath>
</defs>
</svg>
